<svg width="184" height="114" viewBox="0 0 184 114" fill="none" xmlns="http://www.w3.org/2000/svg">
<path d="M75.5133 76.6849H32.4683L24.9251 94.274C23.0667 98.6027 22.1375 101.836 22.1375 103.973C22.1375 105.671 22.93 107.178 24.5152 108.493C26.155 109.753 29.6533 110.575 35.01 110.959V114H0V110.959C4.64613 110.137 7.65246 109.068 9.01897 107.753C11.8066 105.123 14.895 99.7808 18.2839 91.726L57.3934 0H60.2631L98.9626 92.7123C102.078 100.164 104.893 105.014 107.408 107.26C109.977 109.452 113.53 110.685 118.066 110.959V114H74.2015V110.959C78.629 110.74 81.608 110 83.1385 108.74C84.7236 107.479 85.5162 105.945 85.5162 104.137C85.5162 101.726 84.423 97.9178 82.2366 92.7123L75.5133 76.6849ZM73.2176 70.6027L54.3598 25.5616L35.01 70.6027H73.2176Z" fill="black"></path>
<path d="M141.447 76.6849H98.4018L90.8587 94.274C89.0002 98.6027 88.071 101.836 88.071 103.973C88.071 105.671 88.8636 107.178 90.4487 108.493C92.0885 109.753 95.5868 110.575 100.944 110.959V114H65.9336V110.959C70.5797 110.137 73.586 109.068 74.9525 107.753C77.7402 105.123 80.8285 99.7808 84.2174 91.726L123.327 0H126.197L164.896 92.7123C168.012 100.164 170.827 105.014 173.341 107.26C175.91 109.452 179.463 110.685 184 110.959V114H140.135V110.959C144.563 110.74 147.542 110 149.072 108.74C150.657 107.479 151.45 105.945 151.45 104.137C151.45 101.726 150.357 97.9178 148.17 92.7123L141.447 76.6849ZM139.151 70.6027L120.293 25.5616L100.944 70.6027H139.151Z" fill="black"></path>
</svg>
