<svg width="37" height="23" viewBox="0 0 37 23" fill="none" xmlns="http://www.w3.org/2000/svg">
<path d="M15.1847 15.4715H6.52895L5.01212 19.0202C4.63841 19.8935 4.45155 20.5458 4.45155 20.9769C4.45155 21.3196 4.61093 21.6236 4.92968 21.889C5.25943 22.1432 5.96288 22.3091 7.04005 22.3864V23H0V22.3864C0.934277 22.2206 1.53881 22.005 1.8136 21.7397C2.37416 21.2091 2.99518 20.1312 3.67665 18.5061L11.5411 0H12.1181L19.9001 18.7051C20.5266 20.2086 21.0927 21.187 21.5983 21.6402C22.1149 22.0824 22.8293 22.3312 23.7416 22.3864V23H14.921V22.3864C15.8113 22.3422 16.4103 22.193 16.7181 21.9387C17.0368 21.6845 17.1962 21.3749 17.1962 21.0101C17.1962 20.5237 16.9764 19.7553 16.5367 18.7051L15.1847 15.4715ZM14.7231 14.2444L10.931 5.15717L7.04005 14.2444H14.7231Z" fill="black"></path>
<path d="M28.4431 15.4715H19.7873L18.2705 19.0202C17.8968 19.8935 17.7099 20.5458 17.7099 20.9769C17.7099 21.3196 17.8693 21.6236 18.1881 21.889C18.5178 22.1432 19.2213 22.3091 20.2984 22.3864V23H13.2584V22.3864C14.1927 22.2206 14.7972 22.005 15.072 21.7397C15.6325 21.2091 16.2536 20.1312 16.935 18.5061L24.7994 0H25.3765L33.1585 18.7051C33.785 20.2086 34.3511 21.187 34.8567 21.6402C35.3733 22.0824 36.0877 22.3312 37 22.3864V23H28.1793V22.3864C29.0696 22.3422 29.6687 22.193 29.9764 21.9387C30.2952 21.6845 30.4546 21.3749 30.4546 21.0101C30.4546 20.5237 30.2347 19.7553 29.7951 18.7051L28.4431 15.4715ZM27.9815 14.2444L24.1894 5.15717L20.2984 14.2444H27.9815Z" fill="black"></path>
</svg>
